<?xml version="1.0" encoding="UTF-8"?>
<!DOCTYPE svg PUBLIC "-//W3C//DTD SVG 1.1//EN" "http://www.w3.org/Graphics/SVG/1.1/DTD/svg11.dtd">
<svg xmlns="http://www.w3.org/2000/svg" version="1.1" width="150px" height="150px" style="shape-rendering:geometricPrecision; text-rendering:geometricPrecision; image-rendering:optimizeQuality; fill-rule:evenodd; clip-rule:evenodd" xmlns:xlink="http://www.w3.org/1999/xlink">
<g><path style="opacity:1" fill="#332828" d="M -0.5,-0.5 C 49.5,-0.5 99.5,-0.5 149.5,-0.5C 149.5,25.5 149.5,51.5 149.5,77.5C 133.227,89.9823 116.893,102.482 100.5,115C 91.637,120.265 83.3037,126.265 75.5,133C 67.3215,138.363 59.3215,143.863 51.5,149.5C 34.1667,149.5 16.8333,149.5 -0.5,149.5C -0.5,99.5 -0.5,49.5 -0.5,-0.5 Z"/></g>
<g><path style="opacity:1" fill="#94251e" d="M 31.5,31.5 C 32.8333,31.5 34.1667,31.5 35.5,31.5C 37.3472,40.8899 39.5138,50.2232 42,59.5C 42.8333,61.6667 44.3333,63.1667 46.5,64C 42.1667,64.6667 37.8333,64.6667 33.5,64C 34.9308,63.5348 36.0975,62.7014 37,61.5C 37.5428,58.1322 37.3761,54.7989 36.5,51.5C 32.4454,51.1758 28.4454,51.5091 24.5,52.5C 22.8971,55.3436 22.3971,58.3436 23,61.5C 23.9025,62.7014 25.0692,63.5348 26.5,64C 22.1667,64.6667 17.8333,64.6667 13.5,64C 15.6089,62.8589 17.4422,61.3589 19,59.5C 23.4556,50.2587 27.6223,40.9254 31.5,31.5 Z"/></g>
<g><path style="opacity:1" fill="#32211f" d="M 31.5,34.5 C 33.591,39.1906 34.9244,44.1906 35.5,49.5C 32.5,49.5 29.5,49.5 26.5,49.5C 27.9651,44.4379 29.6318,39.4379 31.5,34.5 Z"/></g>
<g><path style="opacity:1" fill="#95251e" d="M 53.5,51.5 C 58.8746,51.1718 64.2079,51.5052 69.5,52.5C 70.9017,56.5388 72.4017,60.5388 74,64.5C 72.3997,78.4491 70.8997,92.4491 69.5,106.5C 64.1667,106.5 58.8333,106.5 53.5,106.5C 52.1153,93.4728 50.4486,80.4728 48.5,67.5C 49.3693,61.8935 51.036,56.5601 53.5,51.5 Z"/></g>
<g><path style="opacity:1" fill="#322626" d="M 55.5,53.5 C 59.5,53.5 63.5,53.5 67.5,53.5C 69.0272,58.085 70.3605,62.7516 71.5,67.5C 69.5708,79.4756 67.9042,91.4756 66.5,103.5C 62.8333,103.5 59.1667,103.5 55.5,103.5C 54.5427,91.7976 53.2094,80.131 51.5,68.5C 52.0238,63.2653 53.3572,58.2653 55.5,53.5 Z"/></g>
<g><path style="opacity:1" fill="#96261e" d="M 86.5,69.5 C 90.1817,69.3347 93.8484,69.5014 97.5,70C 99.8792,72.2269 100.046,74.7269 98,77.5C 93.3623,69.8499 88.029,69.5166 82,76.5C 78.2804,84.0233 78.7804,91.1899 83.5,98C 88.3631,100.329 92.8631,99.8291 97,96.5C 96.7395,99.117 95.2395,100.95 92.5,102C 83.3606,104.191 77.8606,100.691 76,91.5C 74.9418,81.9509 78.4418,74.6176 86.5,69.5 Z"/></g>
<g><path style="opacity:1" fill="#14141c" d="M 149.5,77.5 C 149.5,88.1667 149.5,98.8333 149.5,109.5C 131.017,123.574 112.017,136.908 92.5,149.5C 78.8333,149.5 65.1667,149.5 51.5,149.5C 59.3215,143.863 67.3215,138.363 75.5,133C 83.3037,126.265 91.637,120.265 100.5,115C 116.893,102.482 133.227,89.9823 149.5,77.5 Z"/></g>
<g><path style="opacity:1" fill="#322929" d="M 149.5,109.5 C 149.5,122.833 149.5,136.167 149.5,149.5C 130.5,149.5 111.5,149.5 92.5,149.5C 112.017,136.908 131.017,123.574 149.5,109.5 Z"/></g>
</svg>
